<svg width="32" height="33" viewBox="0 0 32 33" fill="none" xmlns="http://www.w3.org/2000/svg">
<path d="M21.8331 4.65979C23.3789 4.6644 24.8601 5.28051 25.9531 6.37355C27.0462 7.46659 27.6623 8.94775 27.6669 10.4935V22.1598C27.6623 23.7056 27.0462 25.1867 25.9531 26.2798C24.8601 27.3728 23.3789 27.9889 21.8331 27.9935H10.1669C8.62109 27.9889 7.13993 27.3728 6.04689 26.2798C4.95385 25.1867 4.33774 23.7056 4.33313 22.1598V10.4935C4.33774 8.94775 4.95385 7.46659 6.04689 6.37355C7.13993 5.28051 8.62109 4.6644 10.1669 4.65979H21.8331ZM21.8331 2.32666H10.1669C5.675 2.32666 2 6.00166 2 10.4935V22.1598C2 26.6517 5.675 30.3267 10.1669 30.3267H21.8331C26.325 30.3267 30 26.6517 30 22.1598V10.4935C30 6.00166 26.325 2.32666 21.8331 2.32666Z" fill="black"/>
<path d="M23.5831 10.4927C23.237 10.4927 22.8987 10.39 22.6109 10.1977C22.3231 10.0055 22.0988 9.73214 21.9663 9.41237C21.8339 9.0926 21.7992 8.74074 21.8668 8.40127C21.9343 8.0618 22.101 7.74998 22.3457 7.50524C22.5904 7.2605 22.9023 7.09383 23.2417 7.0263C23.5812 6.95878 23.9331 6.99343 24.2528 7.12589C24.5726 7.25834 24.8459 7.48264 25.0382 7.77043C25.2305 8.05821 25.3331 8.39656 25.3331 8.74268C25.3336 8.97263 25.2887 9.20041 25.2009 9.41296C25.1132 9.6255 24.9843 9.81861 24.8217 9.98122C24.6591 10.1438 24.466 10.2727 24.2534 10.3605C24.0409 10.4482 23.8131 10.4932 23.5831 10.4927Z" fill="black"/>
<path d="M16 11.6598C16.923 11.6598 17.8253 11.9335 18.5928 12.4463C19.3602 12.9591 19.9584 13.688 20.3116 14.5407C20.6649 15.3935 20.7573 16.3318 20.5772 17.2371C20.3971 18.1424 19.9527 18.974 19.3 19.6266C18.6473 20.2793 17.8157 20.7238 16.9105 20.9039C16.0052 21.0839 15.0668 20.9915 14.2141 20.6383C13.3613 20.2851 12.6324 19.6869 12.1196 18.9194C11.6068 18.152 11.3331 17.2497 11.3331 16.3267C11.3345 15.0893 11.8266 13.9031 12.7015 13.0281C13.5764 12.1532 14.7627 11.6611 16 11.6598ZM16 9.32666C14.6155 9.32666 13.2622 9.7372 12.111 10.5064C10.9599 11.2755 10.0627 12.3688 9.53285 13.6479C9.00303 14.927 8.86441 16.3344 9.13451 17.6923C9.4046 19.0502 10.0713 20.2974 11.0503 21.2764C12.0292 22.2554 13.2765 22.9221 14.6344 23.1922C15.9922 23.4623 17.3997 23.3236 18.6788 22.7938C19.9579 22.264 21.0511 21.3668 21.8203 20.2157C22.5895 19.0645 23 17.7111 23 16.3267C23 14.4701 22.2625 12.6897 20.9497 11.3769C19.637 10.0642 17.8565 9.32666 16 9.32666Z" fill="black"/>
</svg>
