<svg width="32" height="33" viewBox="0 0 32 33" fill="none" xmlns="http://www.w3.org/2000/svg">
<path d="M31 7.17042C29.8747 7.65939 28.684 7.98153 27.4656 8.12667C28.746 7.37691 29.709 6.18577 30.1737 4.77667C28.9632 5.48454 27.641 5.98122 26.2638 6.24542C25.6838 5.63763 24.9863 5.15411 24.2137 4.82426C23.4411 4.49441 22.6095 4.32512 21.7694 4.32667C18.3681 4.32667 15.6156 7.03917 15.6156 10.3829C15.6132 10.848 15.6665 11.3117 15.7744 11.7642C13.3354 11.6498 10.9472 11.0277 8.76249 9.93746C6.57777 8.84725 4.64468 7.31302 3.08687 5.43292C2.54036 6.35425 2.25133 7.40545 2.25 8.47667C2.25 10.5767 3.34562 12.4329 5 13.5204C4.01983 13.4972 3.05974 13.2377 2.20125 12.7642V12.8392C2.20125 15.7767 4.32625 18.2204 7.13875 18.7767C6.60986 18.9177 6.06486 18.9891 5.5175 18.9892C5.12911 18.9898 4.74161 18.9522 4.36062 18.8767C5.1425 21.2829 7.41813 23.0329 10.1138 23.0829C7.92336 24.771 5.23414 25.6834 2.46875 25.6767C1.97789 25.6759 1.48748 25.6467 1 25.5892C3.81324 27.3856 7.0834 28.3358 10.4213 28.3267C21.7563 28.3267 27.9487 19.0954 27.9487 11.0892C27.9487 10.8267 27.9419 10.5642 27.9294 10.3079C29.1313 9.45296 30.1711 8.39049 31 7.17042Z" fill="black"/>
</svg>
