<svg width="302" height="30" viewBox="0 0 302 30" fill="none" xmlns="http://www.w3.org/2000/svg">
<path d="M4.85644 0.363667L0 4.49023L4.85645 8.6168L9.71289 4.49023L4.85644 0.363667Z" fill="#C00E19"/>
<path d="M209.593 0L204.738 4.12546L208.174 7.04449V11.2859L201.306 17.1351L206.153 21.2517L208.174 19.5346V29.5405H215.039V4.6272L209.593 0Z" fill="black"/>
<path d="M204.739 4.12546L199.883 0L194.438 4.6272V29.5405H201.306V17.1351V7.04449L204.739 4.12546Z" fill="black"/>
<path d="M30.3157 0.740234H23.4476V18.7473L20.0149 21.6641L16.5796 18.7473V0.740234H9.71417V21.1646L20.0149 29.9172L30.3157 21.1646V0.740234Z" fill="black"/>
<path d="M137.486 0L132.631 4.12546L136.063 7.04449V11.2859L129.195 17.1351L134.045 21.2517L136.063 19.5346V29.5405H142.931V4.6272L137.486 0Z" fill="black"/>
<path d="M132.63 4.12546L127.773 0L122.33 4.6272V29.5405H129.195V17.1351V7.04449L132.63 4.12546Z" fill="black"/>
<path d="M68.6765 6.54275L70.6868 8.25314L75.5445 4.12546L70.6868 0L68.6765 1.70816V0.729202H54.9404V6.56505H61.8084V25.7964L66.6636 29.9062L72.5396 24.9155L68.6765 21.633V6.54275Z" fill="black"/>
<path d="M181.132 4.12546L176.274 0L170.831 4.6272V29.5405H177.699V17.1351V7.04449L181.132 4.12546Z" fill="black"/>
<path d="M191.433 7.0447L194.277 4.62741L189.422 0.501953L184.565 4.62741V11.2861L177.699 17.1353L184.565 22.7482V29.5407H191.433V20.4602L187.273 17.0194L191.433 13.4938V7.0447Z" fill="black"/>
<path d="M113.879 0L109.024 4.12546L112.457 7.04449V11.2859L105.589 17.1351L112.457 22.748V29.5405H119.325V20.5537L115.165 17.0192L119.325 13.4936V4.6272L113.879 0Z" fill="black"/>
<path d="M109.024 4.12546L104.166 0L98.7206 4.6272V29.5405H105.589V17.1351V7.04449L109.024 4.12546Z" fill="black"/>
<path d="M151.809 0L146.364 4.6272V29.5405H153.232V7.04449L156.667 4.12546L151.809 0Z" fill="black"/>
<path d="M164.955 29.9062L170.831 24.9155L166.968 21.633V4.6272L161.522 0L156.667 4.12546L160.1 7.04449V25.7808" fill="black"/>
<path d="M46.7863 11.2926L41.5822 15.7146L46.4373 19.8468L53.6544 13.7099V4.6272L48.2088 0L43.3536 4.12546L46.7863 7.04449V11.2926Z" fill="black"/>
<path d="M54.109 24.5498L49.2538 20.4243L43.3542 25.415L39.9188 22.4982V7.04449L43.3542 4.12546L38.4964 0L33.0508 4.6272V24.9155L38.4964 29.5405H48.2355L54.109 24.5498Z" fill="black"/>
<path d="M89.278 11.2926L84.0739 15.7146L88.929 19.8468L96.1461 13.7099V4.6272L90.7005 0L85.8453 4.12546L89.278 7.04449V11.2926Z" fill="black"/>
<path d="M96.6027 24.5498L91.745 20.4243L85.8453 25.415L82.41 22.4982V7.04449L85.8453 4.12546L80.9902 0L75.5446 4.6272V24.9155L80.9902 29.5405H90.7267L96.6027 24.5498Z" fill="black"/>
<path d="M223.429 9.03063L226.329 5.66944V9.03063H227.48V5.66944L230.38 9.03063H231.807L228.723 5.63187L231.532 2.59773H230.134L227.496 5.64292V2.58447H226.344V5.64292L223.657 2.59773H222.262L225.087 5.63187L222 9.03063H223.429ZM233.928 9.03063V2.59773H232.766V9.03063H233.918H233.928ZM241.266 9.03063V2.59773H240.114V5.35564H237.056V2.59773H235.905V9.03063H237.056V6.21969H240.112V9.03063H241.263H241.266ZM248.404 5.35564C248.404 4.44075 248.251 3.7336 247.667 3.22312C247.406 2.99982 247.095 2.82337 246.752 2.70419C246.41 2.58501 246.043 2.52552 245.673 2.52922C245.305 2.52554 244.94 2.5851 244.6 2.70433C244.26 2.82356 243.952 3.00001 243.694 3.22312C243.048 3.76012 242.957 4.4518 242.957 5.51254V5.95451C242.957 6.90917 242.973 7.78427 243.694 8.41408C244.224 8.85851 244.938 9.10757 245.682 9.10757C246.426 9.10757 247.14 8.85851 247.67 8.41408C248.391 7.78648 248.406 6.97546 248.406 5.91694V5.35564H248.404ZM247.252 5.74899C247.252 6.85392 247.252 7.41081 246.806 7.81521C246.662 7.94383 246.488 8.04528 246.295 8.11303C246.102 8.18078 245.894 8.21333 245.686 8.20857C245.477 8.21094 245.271 8.1773 245.078 8.10969C244.886 8.04208 244.711 7.94191 244.565 7.81521C244.166 7.47489 244.135 6.86055 244.135 6.20643V5.65618C244.135 4.8319 244.15 4.2043 244.565 3.82641C244.711 3.69972 244.886 3.59954 245.078 3.53193C245.271 3.46432 245.477 3.43068 245.686 3.43306C245.894 3.42951 246.101 3.46261 246.294 3.53029C246.487 3.59797 246.661 3.69877 246.806 3.82641C247.221 4.19325 247.252 4.76781 247.252 5.74899V5.74899ZM254.989 9.03063V2.59773H253.838V5.65618C253.288 5.76078 252.728 5.82218 252.165 5.83959C251.55 5.83959 251.013 5.64292 251.013 4.89819V2.59773H249.859V5.13465C249.859 6.27273 250.826 6.71691 251.822 6.71691C252.504 6.702 253.182 6.6317 253.848 6.50697V9.03063H254.984H254.989ZM262.542 9.03063V2.59773H261.505L258.133 7.26716V2.59773H256.966V9.03063H258.003L261.396 4.34794V9.03063H262.532H262.542ZM268.943 1H268.085C268.088 1.08563 268.07 1.17085 268.031 1.24989C267.992 1.32894 267.934 1.39997 267.86 1.45821C267.786 1.51644 267.699 1.56051 267.603 1.58745C267.508 1.61438 267.407 1.62355 267.307 1.61434C267.206 1.6247 267.105 1.61633 267.009 1.58981C266.913 1.5633 266.825 1.51928 266.751 1.46081C266.676 1.40234 266.618 1.33083 266.58 1.25125C266.542 1.17167 266.524 1.08593 266.529 1H265.67C265.717 1.88394 266.448 2.21542 267.312 2.21542C268.176 2.21542 268.868 1.88836 268.923 1H268.943ZM270.095 9.03063V2.59773H269.057L265.686 7.26716V2.59773H264.534V9.03063H265.572L268.964 4.34794V9.03063H270.1H270.095ZM228.357 17.6955C228.375 17.3769 228.275 17.0616 228.071 16.794C227.867 16.5264 227.57 16.32 227.221 16.2038C227.538 16.0871 227.805 15.8904 227.986 15.6403C228.168 15.3901 228.255 15.0986 228.235 14.805C228.235 13.7597 227.33 13.0658 225.948 13.0658H222.999V19.501H226.054C227.48 19.501 228.357 18.8071 228.357 17.6955ZM227.099 14.858C227.099 15.4326 226.638 15.7862 225.872 15.7862H224.168V13.9387H225.872C226.625 13.9387 227.099 14.2791 227.099 14.8536V14.858ZM227.206 17.6314C227.206 18.2325 226.731 18.6126 225.963 18.6126H224.168V16.6502H225.963C226.741 16.6635 227.206 17.0436 227.206 17.6314ZM234.896 19.501V18.617H231.195V16.6812H234.341V15.8171H231.195V13.9387H234.893V13.0548H230.059V19.4899H234.893L234.896 19.501ZM241.095 13.9387V13.0548H235.783V13.9387H237.858V19.4965H239.009V13.9387H241.084H241.095ZM247.25 19.4965V18.6126H243.551V16.6768H246.697V15.8127H243.551V13.9387H247.25V13.0548H242.415V19.4899H247.25V19.4965ZM254.094 15.0105C254.094 13.8459 253.111 13.0614 251.669 13.0614H248.801V19.4965H249.952V16.9685H251.672C253.098 16.9685 254.097 16.1707 254.097 15.0194L254.094 15.0105ZM252.943 15.0105C252.943 15.6735 252.424 16.0823 251.591 16.0823H249.95V13.9387H251.591C252.421 13.952 252.943 14.3564 252.943 15.0238V15.0105ZM260.496 19.4965H259.297L258.76 18.2016H255.783L255.246 19.4965H254.048L256.81 13.0614H257.731L260.493 19.4965H260.496ZM258.47 17.364L257.318 14.4912L256.136 17.364H258.47ZM266.944 19.4965V13.0725H265.792V15.8326H262.737V13.0725H261.585V19.5076H262.737V16.6944H265.792V19.5054H266.944V19.4965ZM274.05 17.574H272.899C272.715 18.2369 272.193 18.6789 271.363 18.6789C271.155 18.6819 270.948 18.6486 270.755 18.5809C270.563 18.5133 270.388 18.4127 270.243 18.2855C269.874 17.9452 269.781 17.5673 269.781 16.2723C269.781 14.9774 269.874 14.6105 270.243 14.2592C270.387 14.1309 270.561 14.0296 270.754 13.9619C270.947 13.8942 271.155 13.8615 271.363 13.8658C272.206 13.8658 272.715 14.3232 272.899 14.9707H274.066C273.806 13.689 272.769 12.9951 271.363 12.9951C270.996 12.9914 270.631 13.051 270.291 13.1702C269.951 13.2895 269.642 13.4659 269.384 13.689C268.648 14.3166 268.648 15.037 268.648 16.279C268.648 17.5209 268.632 18.2281 269.384 18.8689C269.642 19.092 269.951 19.2685 270.291 19.3877C270.631 19.507 270.996 19.5665 271.363 19.5628C272.715 19.5628 273.788 18.8689 274.05 17.5872V17.574ZM280.88 17.5342C280.88 16.3696 279.928 15.5851 278.486 15.5851H276.735V13.0548H275.583V19.4899H278.483C279.909 19.5032 280.877 18.7054 280.877 17.5408L280.88 17.5342ZM279.712 17.5342C279.712 18.1971 279.194 18.606 278.377 18.606H276.719V16.458H278.377C279.22 16.4712 279.712 16.8999 279.712 17.543V17.5342ZM283.427 19.4965V16.1486L286.456 19.5054H287.914L284.736 16.1044L287.636 13.0703H286.225L283.401 16.1309V13.0725H282.28V19.5076H283.416L283.427 19.4965ZM294.447 19.4965V13.0725H293.41L290.038 17.7419V13.0725H288.886V19.5076H289.924L293.311 14.8227V19.5054H294.447V19.4965ZM300.848 11.4659H299.99C299.993 11.5515 299.975 11.6367 299.936 11.7158C299.897 11.7948 299.839 11.8659 299.765 11.9241C299.691 11.9823 299.604 12.0264 299.508 12.0533C299.413 12.0803 299.312 12.0895 299.212 12.0802C299.112 12.0876 299.012 12.0772 298.917 12.0496C298.823 12.022 298.736 11.9779 298.663 11.92C298.59 11.8621 298.531 11.7918 298.492 11.7136C298.452 11.6354 298.433 11.551 298.434 11.4659H297.575C297.622 12.3498 298.353 12.6813 299.217 12.6813C300.081 12.6813 300.799 12.3543 300.843 11.4659H300.848ZM302 19.4965V13.0725H300.963L297.591 17.7419V13.0725H296.439V19.5076H297.477L300.864 14.8227V19.5054H302V19.4965ZM228.308 25.4963C228.308 24.3317 227.325 23.5472 225.883 23.5472H223.014V29.9823H224.166V27.4432H225.885C227.312 27.4432 228.31 26.6454 228.31 25.4941L228.308 25.4963ZM227.156 25.4963C227.156 26.1593 226.638 26.5681 225.805 26.5681H224.163V24.4113H225.805C226.635 24.4113 227.156 24.8157 227.156 25.4963ZM234.631 23.5339H233.417L231.794 26.9769L229.978 23.5384H228.764L231.226 28.0818L230.966 28.6056C230.908 28.7613 230.79 28.896 230.632 28.9885C230.474 29.0809 230.284 29.1258 230.092 29.1161H229.555V30H230.334C231.148 30 231.63 29.5426 231.929 28.9547L234.631 23.5538V23.5339ZM240.724 29.9801L238.377 26.6852L240.555 23.5472H239.235L237.731 25.8499L236.242 23.5472H234.922L237.101 26.6852L234.782 29.9801H236.079L237.72 27.5095L239.362 29.9801H240.714H240.724Z" fill="black"/>
</svg>
