<svg width="343" height="35" viewBox="0 0 343 35" fill="none" xmlns="http://www.w3.org/2000/svg">
<path d="M5.51576 0.424075L0 5.2384L5.51576 10.0527L11.0315 5.2384L5.51576 0.424075Z" fill="#C00E19"/>
<path d="M238.048 0L232.534 4.81303L236.436 8.21858V13.1669L228.635 19.991L234.14 24.7936L236.436 22.7904V34.4639H244.233V5.3984L238.048 0Z" fill="#F9F9F9"/>
<path d="M232.534 4.81303L227.02 0L220.835 5.3984V34.4639H228.635V19.991V8.21858L232.534 4.81303Z" fill="#F9F9F9"/>
<path d="M34.4314 0.863708H26.6309V21.8719L22.7322 25.2749L18.8304 21.8719V0.863708H11.033V24.6921L22.7322 34.9035L34.4314 24.6921V0.863708Z" fill="#F9F9F9"/>
<path d="M156.151 0L150.637 4.81303L154.536 8.21858V13.1669L146.735 19.991L152.243 24.7936L154.536 22.7904V34.4639H162.336V5.3984L156.151 0Z" fill="#F9F9F9"/>
<path d="M150.637 4.81303L145.119 0L138.937 5.3984V34.4639H146.735V19.991V8.21858L150.637 4.81303Z" fill="#F9F9F9"/>
<path d="M78.0001 7.63321L80.2833 9.62867L85.8006 4.81303L80.2833 0L78.0001 1.99286V0.850736H62.3992V7.65923H70.1996V30.0958L75.7139 34.8906L82.3877 29.0681L78.0001 25.2385V7.63321Z" fill="#F9F9F9"/>
<path d="M205.723 4.81303L200.206 0L194.024 5.3984V34.4639H201.824V19.991V8.21858L205.723 4.81303Z" fill="#F9F9F9"/>
<path d="M217.422 8.21854L220.653 5.39836L215.138 0.585327L209.621 5.39836V13.1669L201.824 19.9909L209.621 26.5393V34.4639H217.422V23.87L212.697 19.8557L217.422 15.7425V8.21854Z" fill="#F9F9F9"/>
<path d="M129.34 0L123.825 4.81303L127.724 8.21858V13.1669L119.924 19.991L127.724 26.5393V34.4639H135.525V23.9793L130.8 19.8557L135.525 15.7425V5.3984L129.34 0Z" fill="#F9F9F9"/>
<path d="M123.825 4.81303L118.308 0L112.123 5.3984V34.4639H119.924V19.991V8.21858L123.825 4.81303Z" fill="#F9F9F9"/>
<path d="M172.419 0L166.234 5.3984V34.4639H174.035V8.21858L177.937 4.81303L172.419 0Z" fill="#F9F9F9"/>
<path d="M187.35 34.8906L194.024 29.0681L189.636 25.2385V5.3984L183.451 0L177.937 4.81303L181.835 8.21858V30.0775" fill="#F9F9F9"/>
<path d="M53.1381 13.1747L47.2274 18.3337L52.7416 23.1546L60.9385 15.9949V5.3984L54.7536 0L49.2393 4.81303L53.1381 8.21858V13.1747Z" fill="#F9F9F9"/>
<path d="M61.4546 28.6414L55.9403 23.8284L49.2397 29.6509L45.338 26.2479V8.21858L49.2397 4.81303L43.7225 0L37.5375 5.3984V29.0681L43.7225 34.4639H54.7838L61.4546 28.6414Z" fill="#F9F9F9"/>
<path d="M101.399 13.1747L95.4879 18.3337L101.002 23.1546L109.199 15.9949V5.3984L103.014 0L97.4999 4.81303L101.399 8.21858V13.1747Z" fill="#F9F9F9"/>
<path d="M109.718 28.6414L104.2 23.8284L97.4997 29.6509L93.598 26.2479V8.21858L97.4997 4.81303L91.9855 0L85.8005 5.3984V29.0681L91.9855 34.4639H103.044L109.718 28.6414Z" fill="#F9F9F9"/>
<path d="M253.762 10.5358L257.056 6.61436V10.5358H258.364V6.61436L261.657 10.5358H263.277L259.775 6.57053L262.965 3.0307H261.377L258.381 6.58342V3.01523H257.073V6.58342L254.021 3.0307H252.437L255.645 6.57053L252.139 10.5358H253.762ZM265.687 10.5358V3.0307H264.367V10.5358H265.675H265.687ZM274.021 10.5358V3.0307H272.713V6.24826H269.24V3.0307H267.932V10.5358H269.24V7.25633H272.71V10.5358H274.018H274.021ZM282.127 6.24826C282.127 5.1809 281.954 4.35588 281.291 3.76033C280.994 3.49981 280.641 3.29395 280.252 3.15491C279.863 3.01587 279.446 2.94646 279.026 2.95078C278.608 2.94649 278.194 3.01597 277.807 3.15507C277.421 3.29417 277.071 3.50003 276.778 3.76033C276.044 4.38682 275.941 5.19379 275.941 6.43131V6.94695C275.941 8.06072 275.959 9.08167 276.778 9.81645C277.38 10.3349 278.191 10.6255 279.036 10.6255C279.881 10.6255 280.692 10.3349 281.294 9.81645C282.113 9.08425 282.13 8.13806 282.13 6.90312V6.24826H282.127ZM280.82 6.70718C280.82 7.99626 280.82 8.64596 280.313 9.11776C280.149 9.26782 279.951 9.38618 279.732 9.46523C279.513 9.54427 279.277 9.58223 279.04 9.57668C278.804 9.57945 278.569 9.54021 278.35 9.46133C278.132 9.38245 277.933 9.26558 277.768 9.11776C277.314 8.72073 277.279 8.004 277.279 7.24086V6.59889C277.279 5.63723 277.296 4.90503 277.768 4.46417C277.933 4.31636 278.132 4.19948 278.35 4.1206C278.569 4.04172 278.804 4.00248 279.04 4.00525C279.277 4.00112 279.512 4.03973 279.731 4.11869C279.95 4.19765 280.148 4.31525 280.313 4.46417C280.784 4.89214 280.82 5.56247 280.82 6.70718ZM289.607 10.5358V3.0307H288.299V6.59889C287.674 6.72093 287.038 6.79256 286.399 6.81288C285.701 6.81288 285.091 6.58342 285.091 5.71458V3.0307H283.78V5.99045C283.78 7.3182 284.879 7.83641 286.01 7.83641C286.784 7.81902 287.555 7.737 288.311 7.59149V10.5358H289.601H289.607ZM298.185 10.5358V3.0307H297.007L293.177 8.47838V3.0307H291.852V10.5358H293.03L296.883 5.07261V10.5358H298.173H298.185ZM305.455 1.16669H304.48C304.484 1.26659 304.463 1.36601 304.419 1.45823C304.375 1.55045 304.309 1.63332 304.225 1.70126C304.141 1.7692 304.042 1.82062 303.933 1.85204C303.825 1.88346 303.71 1.89416 303.597 1.88342C303.483 1.8955 303.367 1.88574 303.258 1.8548C303.149 1.82387 303.049 1.77251 302.965 1.7043C302.881 1.63609 302.815 1.55266 302.771 1.45981C302.728 1.36697 302.708 1.26694 302.713 1.16669H301.738C301.791 2.19796 302.622 2.58468 303.603 2.58468C304.583 2.58468 305.37 2.20311 305.432 1.16669H305.455ZM306.763 10.5358V3.0307H305.585L301.755 8.47838V3.0307H300.448V10.5358H301.626L305.479 5.07261V10.5358H306.769H306.763ZM259.359 20.6448C259.379 20.273 259.265 19.9052 259.034 19.593C258.803 19.2808 258.465 19.04 258.069 18.9045C258.429 18.7684 258.732 18.5389 258.938 18.247C259.144 17.9552 259.243 17.615 259.221 17.2725C259.221 16.053 258.193 15.2435 256.623 15.2435H253.273V22.7511H256.743C258.364 22.7511 259.359 21.9416 259.359 20.6448ZM257.931 17.3344C257.931 18.0047 257.406 18.4172 256.537 18.4172H254.602V16.2619H256.537C257.391 16.2619 257.931 16.6589 257.931 17.3292V17.3344ZM258.051 20.57C258.051 21.2713 257.512 21.7147 256.64 21.7147H254.602V19.4253H256.64C257.524 19.4408 258.051 19.8842 258.051 20.57ZM266.786 22.7511V21.7199H262.582V19.4614H266.155V18.4533H262.582V16.2619H266.783V15.2306H261.292V22.7382H266.783L266.786 22.7511ZM273.826 16.2619V15.2306H267.793V16.2619H270.15V22.746H271.458V16.2619H273.814H273.826ZM280.817 22.746V21.7147H276.616V19.4562H280.189V18.4482H276.616V16.2619H280.817V15.2306H275.326V22.7382H280.817V22.746ZM288.591 17.5123C288.591 16.1536 287.474 15.2383 285.836 15.2383H282.578V22.746H283.886V19.7965H285.839C287.459 19.7965 288.594 18.8658 288.594 17.5226L288.591 17.5123ZM287.283 17.5123C287.283 18.2857 286.694 18.7627 285.748 18.7627H283.883V16.2619H285.748C286.691 16.2773 287.283 16.7492 287.283 17.5278V17.5123ZM295.861 22.746H294.5L293.89 21.2352H290.508L289.899 22.746H288.538L291.675 15.2383H292.721L295.858 22.746H295.861ZM293.56 20.258L292.252 16.9064L290.909 20.258H293.56ZM303.184 22.746V15.2512H301.876V18.4714H298.406V15.2512H297.098V22.7589H298.406V19.4769H301.876V22.7563H303.184V22.746ZM311.256 20.503H309.948C309.739 21.2764 309.147 21.7921 308.204 21.7921C307.967 21.7956 307.732 21.7567 307.513 21.6778C307.295 21.5988 307.096 21.4816 306.931 21.3331C306.513 20.9361 306.407 20.4952 306.407 18.9844C306.407 17.4736 306.513 17.0456 306.931 16.6357C307.095 16.486 307.293 16.3679 307.512 16.2889C307.731 16.2099 307.967 16.1717 308.204 16.1768C309.161 16.1768 309.739 16.7105 309.948 17.4659H311.273C310.979 15.9705 309.801 15.161 308.204 15.161C307.786 15.1567 307.372 15.2262 306.986 15.3653C306.6 15.5044 306.249 15.7102 305.956 15.9705C305.12 16.7027 305.12 17.5432 305.12 18.9922C305.12 20.4411 305.102 21.2661 305.956 22.0138C306.249 22.2741 306.6 22.4799 306.986 22.619C307.372 22.7581 307.786 22.8276 308.204 22.8233C309.739 22.8233 310.958 22.0138 311.256 20.5184V20.503ZM319.012 20.4566C319.012 19.0979 317.931 18.1826 316.293 18.1826H314.305V15.2306H312.997V22.7382H316.29C317.91 22.7537 319.009 21.823 319.009 20.4643L319.012 20.4566ZM317.687 20.4566C317.687 21.23 317.097 21.707 316.169 21.707H314.287V19.201H316.169C317.127 19.2165 317.687 19.7166 317.687 20.4669V20.4566ZM321.905 22.746V18.84L325.346 22.7563H327.001L323.393 18.7885L326.686 15.2487H325.083L321.875 18.8194V15.2512H320.603V22.7589H321.893L321.905 22.746ZM334.422 22.746V15.2512H333.243L329.414 20.6989V15.2512H328.106V22.7589H329.284L333.131 17.2931V22.7563H334.422V22.746ZM341.692 13.3769H340.717C340.721 13.4768 340.7 13.5762 340.656 13.6684C340.612 13.7607 340.545 13.8435 340.462 13.9115C340.378 13.9794 340.278 14.0308 340.17 14.0623C340.062 14.0937 339.947 14.1044 339.833 14.0936C339.72 14.1023 339.606 14.0901 339.499 14.0579C339.392 14.0257 339.293 13.9742 339.21 13.9067C339.127 13.8392 339.06 13.7572 339.016 13.6659C338.971 13.5747 338.948 13.4762 338.949 13.3769H337.974C338.027 14.4082 338.858 14.7949 339.839 14.7949C340.82 14.7949 341.636 14.4133 341.686 13.3769H341.692ZM343 22.746V15.2512H341.822L337.992 20.6989V15.2512H336.684V22.7589H337.862L341.71 17.2931V22.7563H343V22.746ZM259.303 29.7457C259.303 28.387 258.187 27.4718 256.549 27.4718H253.291V34.9794H254.599V32.0171H256.552C258.172 32.0171 259.306 31.0864 259.306 29.7431L259.303 29.7457ZM257.995 29.7457C257.995 30.5192 257.406 30.9961 256.461 30.9961H254.596V28.4798H256.461C257.403 28.4798 257.995 28.9516 257.995 29.7457ZM266.485 27.4563H265.107L263.262 31.4731L261.2 27.4615H259.822L262.617 32.7622L262.323 33.3732C262.256 33.5549 262.123 33.712 261.943 33.8199C261.763 33.9277 261.548 33.9801 261.33 33.9688H260.72V35H261.604C262.529 35 263.077 34.4663 263.416 33.7805L266.485 27.4795V27.4563ZM273.405 34.9768L270.739 31.1328L273.213 27.4718H271.714L270.005 30.1582L268.315 27.4718H266.815L269.29 31.1328L266.656 34.9768H268.129L269.994 32.0944L271.858 34.9768H273.393H273.405Z" fill="#F9F9F9"/>
</svg>
