<svg width="166" height="16" viewBox="0 0 166 16" fill="none" xmlns="http://www.w3.org/2000/svg">
<path d="M2.66944 0.193695L0 2.39453L2.66944 4.59537L5.33887 2.39453L2.66944 0.193695Z" fill="#C00E19"/>
<path d="M115.207 0L112.538 2.20024L114.427 3.75706V6.01915L110.651 9.13874L113.316 11.3342L114.427 10.4184V15.7549H118.2V2.46784L115.207 0Z" fill="#F9F9F9"/>
<path d="M112.538 2.20024L109.87 0L106.876 2.46784V15.7549H110.651V9.13874V3.75706L112.538 2.20024Z" fill="#F9F9F9"/>
<path d="M16.6634 0.394531H12.8882V9.99829L11.0014 11.5539L9.11307 9.99829V0.394531H5.33936V11.2875L11.0014 15.9556L16.6634 11.2875V0.394531Z" fill="#F9F9F9"/>
<path d="M75.5717 0L72.9029 2.20024L74.7898 3.75706V6.01915L71.0146 9.13874L73.6805 11.3342L74.7898 10.4184V15.7549H78.565V2.46784L75.5717 0Z" fill="#F9F9F9"/>
<path d="M72.9029 2.20024L70.2327 0L67.2408 2.46784V15.7549H71.0146V9.13874V3.75706L72.9029 2.20024Z" fill="#F9F9F9"/>
<path d="M37.7493 3.48947L38.8543 4.40168L41.5245 2.20024L38.8543 0L37.7493 0.91102V0.388908H30.199V3.50136H33.9742V13.7581L36.6429 15.95L39.8728 13.2883L37.7493 11.5376V3.48947Z" fill="#F9F9F9"/>
<path d="M99.5626 2.20024L96.8925 0L93.9006 2.46784V15.7549H97.6758V9.13874V3.75706L99.5626 2.20024Z" fill="#F9F9F9"/>
<path d="M105.225 3.75704L106.788 2.46782L104.12 0.267578L101.449 2.46782V6.01913L97.6757 9.13872L101.449 12.1322V15.7549H105.225V10.912L102.938 9.07688L105.225 7.19656V3.75704Z" fill="#F9F9F9"/>
<path d="M62.5958 0L59.9271 2.20024L61.814 3.75706V6.01915L58.0388 9.13874L61.814 12.1323V15.7549H65.5891V10.962L63.3027 9.07689L65.5891 7.19658V2.46784L62.5958 0Z" fill="#F9F9F9"/>
<path d="M59.9271 2.20024L57.257 0L54.2637 2.46784V15.7549H58.0388V9.13874V3.75706L59.9271 2.20024Z" fill="#F9F9F9"/>
<path d="M83.445 0L80.4517 2.46784V15.7549H84.2268V3.75706L86.1151 2.20024L83.445 0Z" fill="#F9F9F9"/>
<path d="M90.6707 15.95L93.9006 13.2883L91.7771 11.5376V2.46784L88.7838 0L86.1151 2.20024L88.002 3.75706V13.7497" fill="#F9F9F9"/>
<path d="M25.717 6.02272L22.8564 8.38114L25.5251 10.585L29.4921 7.31194V2.46784L26.4988 0L23.8301 2.20024L25.717 3.75706V6.02272Z" fill="#F9F9F9"/>
<path d="M29.7419 13.0932L27.0732 10.893L23.8303 13.5547L21.942 11.9991V3.75706L23.8303 2.20024L21.1602 0L18.1669 2.46784V13.2883L21.1602 15.7549H26.5135L29.7419 13.0932Z" fill="#F9F9F9"/>
<path d="M49.0733 6.02272L46.2128 8.38114L48.8815 10.585L52.8485 7.31194V2.46784L49.8552 0L47.1865 2.20024L49.0733 3.75706V6.02272Z" fill="#F9F9F9"/>
<path d="M53.0995 13.0932L50.4293 10.893L47.1865 13.5547L45.2982 11.9991V3.75706L47.1865 2.20024L44.5178 0L41.5245 2.46784V13.2883L44.5178 15.7549H49.8696L53.0995 13.0932Z" fill="#F9F9F9"/>
</svg>
